# xmcd
#
# Track frame offsets:
#	150
#	15137
#	28337
#	41312
#	55037
#	68312
#	82187
#	95990
#	110312
#	125087
#	138062
#	152540
#	165235
#	179755
#	193927
#	208922
#	222727
#	237275
#	251600
#	264952
#	279800
#	295235
#	310615
#	324225
#	337400
#
# Disc length: 4673 seconds
#
# Revision: 10
# Processed by: cddbd v1.5.2PL0 Copyright (c) Steve Scherf et al.
# Submitted via: Jack! The Knife 20 Magnifico
#
DISCID=68123f19
DTITLE=Billie Holiday - Lady Day
DYEAR=1997
DGENRE=Jazz
TTITLE0=These Foolish Things
TTITLE1=Summertime
TTITLE2=A Fine Romance
TTITLE3=The Way You Look Tonight
TTITLE4=I've Got My Love To Keep Me Warm
TTITLE5=They Can't Take That Away From Me
TTITLE6=I'll Never Be The Same
TTITLE7=Nice Work If You Can Get It
TTITLE8=Can't Help Lovin' Dat Man
TTITLE9=When You're Smiling
TTITLE10=Any Old Time
TTITLE11=The Very Thought Of You
TTITLE12=Strange Fruit
TTITLE13=Good Morning Heartache
TTITLE14=Georgia On My Mind
TTITLE15=All Of Me
TTITLE16=Easy Living
TTITLE17=God Bless The Child
TTITLE18=I Loves You, Porgy
TTITLE19=Lover Man (Oh, Where Can You Be?)
TTITLE20=Don't Explain
TTITLE21=You're My Thrill
TTITLE22=There Is No Greater Love
TTITLE23=That Ole Devil Called Love
TTITLE24=For All We Know
EXTD=
EXTT0=
EXTT1=
EXTT2=
EXTT3=
EXTT4=
EXTT5=
EXTT6=
EXTT7=
EXTT8=
EXTT9=
EXTT10=
EXTT11=
EXTT12=
EXTT13=
EXTT14=
EXTT15=
EXTT16=
EXTT17=
EXTT18=
EXTT19=
EXTT20=
EXTT21=
EXTT22=
EXTT23=
EXTT24=
PLAYORDER=
